<?xml version="1.0" encoding="UTF-8"?>
<svg width="24" height="24" fill="currentColor" xmlns="http://www.w3.org/2000/svg" viewBox="0 0 24 24">
  <path d="M12,1.5c5.79,0,10.5,4.71,10.5,10.5s-4.71,10.5-10.5,10.5S1.5,17.79,1.5,12,6.21,1.5,12,1.5M12,0C5.37,0,0,5.37,0,12s5.37,12,12,12,12-5.37,12-12S18.63,0,12,0h0Z"/>
  <path d="M17.48,10.12c0,1.68-1.07,2.93-3.33,2.93h-2.32v3.52h-1.39V7.19h3.49c2.64,0,3.55,1.25,3.55,2.93ZM16.09,10.12c0-1.11-.67-1.76-1.96-1.76h-2.31v3.52h2.31c1.29,0,1.96-.76,1.96-1.76Z"/>
  <rect x="6.97" y="9.75" width="1.71" height="1.71"/>
  <rect x="6.97" y="14.87" width="1.71" height="1.71"/>
</svg>
